<svg width="800" height="800" viewBox="0 0 800 800" fill="none" xmlns="http://www.w3.org/2000/svg">
<path d="M204.2 429.6V422.4C204.2 420.933 204.933 420.2 206.4 420.2H212.2C213.667 420.2 214.4 420.933 214.4 422.4V429C214.4 442.333 220.867 449 233.8 449H254.6C267.533 449 274 442.267 274 428.8V420.4C274 414.533 271.6 409.933 266.8 406.6C262 403.267 256.2 400.867 249.4 399.4C242.6 397.933 235.733 396.4 228.8 394.8C222 393.2 216.2 390.267 211.4 386C206.6 381.733 204.2 376 204.2 368.8V357.8C204.2 349 206.733 342.067 211.8 337C216.867 331.933 223.733 329.4 232.4 329.4H255.6C264.267 329.4 271.133 331.933 276.2 337C281.267 342.067 283.8 349 283.8 357.8V363.4C283.8 364.867 283.067 365.6 281.6 365.6H275.8C274.333 365.6 273.6 364.867 273.6 363.4V358.4C273.6 345.067 267.133 338.4 254.2 338.4H233.6C220.8 338.4 214.4 345.2 214.4 358.8V368.8C214.4 378 222.6 384.2 239 387.4C245.8 388.733 252.6 390.267 259.4 392C266.333 393.733 272.2 396.867 277 401.4C281.8 405.933 284.2 412.067 284.2 419.8V429.6C284.2 438.4 281.667 445.333 276.6 450.4C271.533 455.467 264.667 458 256 458H232.4C223.733 458 216.867 455.467 211.8 450.4C206.733 445.333 204.2 438.4 204.2 429.6ZM381.105 458H319.305C317.971 458 317.305 457.2 317.305 455.6V331.8C317.305 330.2 317.971 329.4 319.305 329.4H381.105C382.705 329.4 383.505 330.133 383.505 331.6V336.2C383.505 337.667 382.705 338.4 381.105 338.4H329.305C327.971 338.4 327.305 339 327.305 340.2V386.2C327.305 387.4 327.971 388 329.305 388H375.505C376.971 388 377.705 388.733 377.705 390.2V394.8C377.705 396.267 376.971 397 375.505 397H329.305C327.971 397 327.305 397.6 327.305 398.8V447.2C327.305 448.4 327.971 449 329.305 449H381.105C382.705 449 383.505 449.733 383.505 451.2V455.8C383.505 457.267 382.705 458 381.105 458ZM421.394 458H415.594C414.26 458 413.594 457.2 413.594 455.6V331.8C413.594 330.2 414.26 329.4 415.594 329.4H461.194C469.86 329.4 476.727 331.933 481.794 337C486.86 342.067 489.394 349 489.394 357.8V376.8C489.394 384.267 487.46 390.4 483.594 395.2C479.86 400 474.727 403.067 468.194 404.4V405.2L491.994 455.6C492.794 457.2 492.327 458 490.594 458H484.394C482.66 458 481.46 457.2 480.794 455.6L457.194 405.2H425.594C424.26 405.2 423.594 405.8 423.594 407V455.6C423.594 457.2 422.86 458 421.394 458ZM425.594 396.6H460.194C466.327 396.6 471.06 394.933 474.394 391.6C477.727 388.133 479.394 383.267 479.394 377V358.2C479.394 351.933 477.727 347.067 474.394 343.6C471.06 340.133 466.327 338.4 460.194 338.4H425.594C424.26 338.4 423.594 339 423.594 340.2V394.8C423.594 396 424.26 396.6 425.594 396.6ZM517.03 458H510.83C509.363 458 508.896 457.2 509.43 455.6L549.23 331.8C549.63 330.2 550.563 329.4 552.03 329.4H561.43C562.763 329.4 563.696 330.2 564.23 331.8L604.03 455.6C604.43 457.2 603.963 458 602.63 458H596.23C594.896 458 594.03 457.2 593.63 455.6L582.83 423.6H530.43L519.63 455.6C519.096 457.2 518.23 458 517.03 458ZM556.23 340.4L533.23 414.6H580.23L557.03 340.4H556.23Z" fill="white"/>
</svg>
