<svg xmlns="http://www.w3.org/2000/svg" width="658" height="342" fill="none" viewBox="0 0 658 342">
  <path fill="url(#a)" fill-opacity=".2" d="M63.5 240.75c-15.083 0-26.125-3.458-33.125-10.375C23.458 223.458 20 212.5 20 197.5c0-1.5.5-2.75 1.5-3.75s2.25-1.5 3.75-1.5 2.75.5 3.75 1.5 1.5 2.25 1.5 3.75c0 12.083 2.417 20.583 7.25 25.5 4.917 4.833 13.5 7.25 25.75 7.25h36c12.25 0 20.792-2.417 25.625-7.25 4.917-4.917 7.375-13.417 7.375-25.5 0-12.167-2.458-20.667-7.375-25.5-4.833-4.833-13.375-7.25-25.625-7.25H64.25c-14.333 0-24.792-3.25-31.375-9.75C26.292 148.417 23 138 23 123.75s3.25-24.625 9.75-31.125c6.583-6.583 17-9.875 31.25-9.875h36.75c14.25 0 24.625 3.25 31.125 9.75 6.583 6.5 9.875 16.833 9.875 31 0 1.5-.5 2.75-1.5 3.75s-2.25 1.5-3.75 1.5-2.75-.5-3.75-1.5-1.5-2.25-1.5-3.75c0-11.167-2.292-19-6.875-23.5-4.5-4.5-12.375-6.75-23.625-6.75H64c-11.25 0-19.167 2.292-23.75 6.875-4.5 4.5-6.75 12.375-6.75 23.625s2.292 19.167 6.875 23.75c4.583 4.5 12.542 6.75 23.875 6.75H99.5c15.167 0 26.208 3.458 33.125 10.375C139.542 171.542 143 182.5 143 197.5s-3.458 25.958-10.375 32.875c-6.917 6.917-17.958 10.375-33.125 10.375h-36Z"/>
  <path fill="#fff" d="m30.375 230.375-.707.707.004.004.703-.711ZM21.5 193.75l-.707-.707.707.707Zm7.5 0-.707.707.707-.707ZM37.75 223l-.713.701.006.006.006.006.701-.713Zm87.375 0 .707.707-.707-.707Zm0-51-.707.707.006.006.701-.713Zm-92.25-17-.707.707.004.005.703-.712Zm-.125-62.375.707.707-.707-.707Zm99.125-.125-.707.707.004.005.703-.712Zm8.375 34.75.707.707-.707-.707Zm-7.5 0-.707.707.707-.707ZM124.375 100l-.707.707.006.007.701-.714Zm-84.125.125-.707-.707.707.707Zm.125 47.375-.707.707.006.007.701-.714Zm92.25 17.125.707-.707-.707.707Zm0 65.75.707.707-.707-.707ZM63.5 239.75c-14.957 0-25.688-3.433-32.422-10.086l-1.406 1.422c7.266 7.18 18.619 10.664 33.828 10.664v-2Zm-32.418-10.082C24.432 223.018 21 212.373 21 197.5h-2c0 15.127 3.484 26.399 10.668 33.582l1.414-1.414ZM21 197.5c0-1.253.407-2.243 1.207-3.043l-1.414-1.414c-1.2 1.2-1.793 2.71-1.793 4.457h2Zm1.207-3.043c.8-.8 1.79-1.207 3.043-1.207v-2c-1.747 0-3.257.593-4.457 1.793l1.414 1.414Zm3.043-1.207c1.253 0 2.243.407 3.043 1.207l1.414-1.414c-1.2-1.2-2.71-1.793-4.457-1.793v2Zm3.043 1.207c.8.8 1.207 1.79 1.207 3.043h2c0-1.747-.593-3.257-1.793-4.457l-1.414 1.414ZM29.5 197.5c0 12.164 2.423 20.999 7.537 26.201l1.426-1.402c-4.552-4.631-6.963-12.796-6.963-24.799h-2Zm7.549 26.213c5.204 5.116 14.125 7.537 26.451 7.537v-2c-12.174 0-20.42-2.412-25.049-6.963l-1.402 1.426ZM63.5 231.25h36v-2h-36v2Zm36 0c12.323 0 21.209-2.42 26.332-7.543l-1.414-1.414c-4.544 4.543-12.741 6.957-24.918 6.957v2Zm26.332-7.543c5.202-5.202 7.668-14.04 7.668-26.207h-2c0 12-2.451 20.162-7.082 24.793l1.414 1.414ZM133.5 197.5c0-12.245-2.464-21.091-7.674-26.213l-1.402 1.426c4.623 4.545 7.076 12.699 7.076 24.787h2Zm-7.668-26.207c-5.123-5.123-14.009-7.543-26.332-7.543v2c12.177 0 20.374 2.414 24.918 6.957l1.414-1.414ZM99.5 163.75H64.25v2H99.5v-2Zm-35.25 0c-14.211 0-24.357-3.226-30.672-9.462l-1.406 1.424c6.852 6.764 17.622 10.038 32.078 10.038v-2Zm-30.668-9.457C27.265 147.976 24 137.873 24 123.75h-2c0 14.377 3.318 25.107 10.168 31.957l1.414-1.414ZM24 123.75c0-14.127 3.226-24.186 9.457-30.418l-1.414-1.414C25.274 98.686 22 109.377 22 123.75h2Zm9.457-30.418C39.774 87.015 49.877 83.75 64 83.75v-2c-14.377 0-25.107 3.318-31.957 10.168l1.414 1.414ZM64 83.75h36.75v-2H64v2Zm36.75 0c14.127 0 24.186 3.226 30.418 9.457l1.414-1.414c-6.768-6.769-17.459-10.043-31.832-10.043v2Zm30.422 9.462c6.313 6.232 9.578 16.249 9.578 30.288h2c0-14.295-3.318-24.944-10.172-31.712l-1.406 1.424Zm9.578 30.288c0 1.253-.407 2.243-1.207 3.043l1.414 1.414c1.2-1.2 1.793-2.71 1.793-4.457h-2Zm-1.207 3.043c-.8.8-1.79 1.207-3.043 1.207v2c1.747 0 3.257-.593 4.457-1.793l-1.414-1.414Zm-3.043 1.207c-1.253 0-2.243-.407-3.043-1.207l-1.414 1.414c1.2 1.2 2.71 1.793 4.457 1.793v-2Zm-3.043-1.207c-.8-.8-1.207-1.79-1.207-3.043h-2c0 1.747.593 3.257 1.793 4.457l1.414-1.414Zm-1.207-3.043c0-11.251-2.299-19.427-7.174-24.214l-1.402 1.428c4.292 4.213 6.576 11.703 6.576 22.786h2Zm-7.168-24.207c-4.788-4.788-13.004-7.043-24.332-7.043v2c11.172 0 18.706 2.245 22.918 6.457l1.414-1.414ZM100.75 92.25H64v2h36.75v-2Zm-36.75 0c-11.334 0-19.588 2.3-24.457 7.168l1.414 1.414C45.255 96.534 52.834 94.25 64 94.25v-2Zm-24.457 7.168c-4.788 4.788-7.043 13.004-7.043 24.332h2c0-11.172 2.245-18.706 6.457-22.918l-1.414-1.414ZM32.5 123.75c0 11.334 2.3 19.588 7.168 24.457l1.414-1.414c-4.298-4.298-6.582-11.877-6.582-23.043h-2Zm7.174 24.464c4.87 4.781 13.165 7.036 24.576 7.036v-2c-11.255 0-18.878-2.245-23.174-6.464l-1.402 1.428Zm24.576 7.036H99.5v-2H64.25v2Zm35.25 0c15.044 0 25.77 3.434 32.418 10.082l1.414-1.414c-7.185-7.185-18.542-10.668-33.832-10.668v2Zm32.418 10.082c6.65 6.65 10.082 17.295 10.082 32.168h2c0-15.127-3.484-26.399-10.668-33.582l-1.414 1.414ZM142 197.5c0 14.873-3.432 25.518-10.082 32.168l1.414 1.414C140.516 223.899 144 212.627 144 197.5h-2Zm-10.082 32.168c-6.648 6.648-17.374 10.082-32.418 10.082v2c15.29 0 26.647-3.483 33.832-10.668l-1.414-1.414ZM99.5 239.75h-36v2h36v-2Z"/>
  <path fill="url(#b)" fill-opacity=".2" d="M63.5 250.75c-15.083 0-26.125-3.458-33.125-10.375C23.458 233.458 20 222.5 20 207.5c0-1.5.5-2.75 1.5-3.75s2.25-1.5 3.75-1.5 2.75.5 3.75 1.5 1.5 2.25 1.5 3.75c0 12.083 2.417 20.583 7.25 25.5 4.917 4.833 13.5 7.25 25.75 7.25h36c12.25 0 20.792-2.417 25.625-7.25 4.917-4.917 7.375-13.417 7.375-25.5 0-12.167-2.458-20.667-7.375-25.5-4.833-4.833-13.375-7.25-25.625-7.25H64.25c-14.333 0-24.792-3.25-31.375-9.75C26.292 158.417 23 148 23 133.75s3.25-24.625 9.75-31.125c6.583-6.583 17-9.875 31.25-9.875h36.75c14.25 0 24.625 3.25 31.125 9.75 6.583 6.5 9.875 16.833 9.875 31 0 1.5-.5 2.75-1.5 3.75s-2.25 1.5-3.75 1.5-2.75-.5-3.75-1.5-1.5-2.25-1.5-3.75c0-11.167-2.292-19-6.875-23.5-4.5-4.5-12.375-6.75-23.625-6.75H64c-11.25 0-19.167 2.292-23.75 6.875-4.5 4.5-6.75 12.375-6.75 23.625s2.292 19.167 6.875 23.75c4.583 4.5 12.542 6.75 23.875 6.75H99.5c15.167 0 26.208 3.458 33.125 10.375C139.542 181.542 143 192.5 143 207.5s-3.458 25.958-10.375 32.875c-6.917 6.917-17.958 10.375-33.125 10.375h-36Z"/>
  <path fill="#fff" d="m30.375 240.375-.707.707.004.004.703-.711ZM21.5 203.75l-.707-.707.707.707Zm7.5 0-.707.707.707-.707ZM37.75 233l-.713.701.006.006.006.006.701-.713Zm87.375 0 .707.707-.707-.707Zm0-51-.707.707.006.006.701-.713Zm-92.25-17-.707.707.004.005.703-.712Zm-.125-62.375.707.707-.707-.707Zm99.125-.125-.707.707.004.005.703-.712Zm8.375 34.75.707.707-.707-.707Zm-7.5 0-.707.707.707-.707ZM124.375 110l-.707.707.006.007.701-.714Zm-84.125.125-.707-.707.707.707Zm.125 47.375-.707.707.006.007.701-.714Zm92.25 17.125.707-.707-.707.707Zm0 65.75.707.707-.707-.707ZM63.5 249.75c-14.957 0-25.688-3.433-32.422-10.086l-1.406 1.422c7.266 7.18 18.619 10.664 33.828 10.664v-2Zm-32.418-10.082C24.432 233.018 21 222.373 21 207.5h-2c0 15.127 3.484 26.399 10.668 33.582l1.414-1.414ZM21 207.5c0-1.253.407-2.243 1.207-3.043l-1.414-1.414c-1.2 1.2-1.793 2.71-1.793 4.457h2Zm1.207-3.043c.8-.8 1.79-1.207 3.043-1.207v-2c-1.747 0-3.257.593-4.457 1.793l1.414 1.414Zm3.043-1.207c1.253 0 2.243.407 3.043 1.207l1.414-1.414c-1.2-1.2-2.71-1.793-4.457-1.793v2Zm3.043 1.207c.8.8 1.207 1.79 1.207 3.043h2c0-1.747-.593-3.257-1.793-4.457l-1.414 1.414ZM29.5 207.5c0 12.164 2.423 20.999 7.537 26.201l1.426-1.402c-4.552-4.631-6.963-12.796-6.963-24.799h-2Zm7.549 26.213c5.204 5.116 14.125 7.537 26.451 7.537v-2c-12.174 0-20.42-2.412-25.049-6.963l-1.402 1.426ZM63.5 241.25h36v-2h-36v2Zm36 0c12.323 0 21.209-2.42 26.332-7.543l-1.414-1.414c-4.544 4.543-12.741 6.957-24.918 6.957v2Zm26.332-7.543c5.202-5.202 7.668-14.04 7.668-26.207h-2c0 12-2.451 20.162-7.082 24.793l1.414 1.414ZM133.5 207.5c0-12.245-2.464-21.091-7.674-26.213l-1.402 1.426c4.623 4.545 7.076 12.699 7.076 24.787h2Zm-7.668-26.207c-5.123-5.123-14.009-7.543-26.332-7.543v2c12.177 0 20.374 2.414 24.918 6.957l1.414-1.414ZM99.5 173.75H64.25v2H99.5v-2Zm-35.25 0c-14.211 0-24.357-3.226-30.672-9.462l-1.406 1.424c6.852 6.764 17.622 10.038 32.078 10.038v-2Zm-30.668-9.457C27.265 157.976 24 147.873 24 133.75h-2c0 14.377 3.318 25.107 10.168 31.957l1.414-1.414ZM24 133.75c0-14.127 3.226-24.186 9.457-30.418l-1.414-1.414C25.274 108.686 22 119.377 22 133.75h2Zm9.457-30.418C39.774 97.015 49.877 93.75 64 93.75v-2c-14.377 0-25.107 3.318-31.957 10.168l1.414 1.414ZM64 93.75h36.75v-2H64v2Zm36.75 0c14.127 0 24.186 3.226 30.418 9.457l1.414-1.414c-6.768-6.769-17.459-10.043-31.832-10.043v2Zm30.422 9.462c6.313 6.232 9.578 16.249 9.578 30.288h2c0-14.295-3.318-24.944-10.172-31.712l-1.406 1.424Zm9.578 30.288c0 1.253-.407 2.243-1.207 3.043l1.414 1.414c1.2-1.2 1.793-2.71 1.793-4.457h-2Zm-1.207 3.043c-.8.8-1.79 1.207-3.043 1.207v2c1.747 0 3.257-.593 4.457-1.793l-1.414-1.414Zm-3.043 1.207c-1.253 0-2.243-.407-3.043-1.207l-1.414 1.414c1.2 1.2 2.71 1.793 4.457 1.793v-2Zm-3.043-1.207c-.8-.8-1.207-1.79-1.207-3.043h-2c0 1.747.593 3.257 1.793 4.457l1.414-1.414Zm-1.207-3.043c0-11.251-2.299-19.427-7.174-24.214l-1.402 1.428c4.292 4.213 6.576 11.703 6.576 22.786h2Zm-7.168-24.207c-4.788-4.788-13.004-7.043-24.332-7.043v2c11.172 0 18.706 2.245 22.918 6.457l1.414-1.414Zm-24.332-7.043H64v2h36.75v-2Zm-36.75 0c-11.334 0-19.588 2.299-24.457 7.168l1.414 1.414c4.298-4.298 11.877-6.582 23.043-6.582v-2Zm-24.457 7.168c-4.788 4.788-7.043 13.004-7.043 24.332h2c0-11.172 2.245-18.706 6.457-22.918l-1.414-1.414ZM32.5 133.75c0 11.334 2.3 19.588 7.168 24.457l1.414-1.414c-4.298-4.298-6.582-11.877-6.582-23.043h-2Zm7.174 24.464c4.87 4.781 13.165 7.036 24.576 7.036v-2c-11.255 0-18.878-2.245-23.174-6.464l-1.402 1.428Zm24.576 7.036H99.5v-2H64.25v2Zm35.25 0c15.044 0 25.77 3.434 32.418 10.082l1.414-1.414c-7.185-7.185-18.542-10.668-33.832-10.668v2Zm32.418 10.082c6.65 6.65 10.082 17.295 10.082 32.168h2c0-15.127-3.484-26.399-10.668-33.582l-1.414 1.414ZM142 207.5c0 14.873-3.432 25.518-10.082 32.168l1.414 1.414C140.516 233.899 144 222.627 144 207.5h-2Zm-10.082 32.168c-6.648 6.648-17.374 10.082-32.418 10.082v2c15.29 0 26.647-3.483 33.832-10.668l-1.414-1.414ZM99.5 249.75h-36v2h36v-2Z"/>
  <circle cx="149" cy="275" r="5" fill="#5A3875"/>
  <path fill="url(#c)" fill-opacity=".2" d="M445.25 285.5c-3.083-1.5-4-3.833-2.75-7l62.75-146.75c1-2.667 3-4 6-4h.75c2.75 0 4.75 1.333 6 4l62.5 146.75c1.417 3.167.5 5.5-2.75 7-3.167 1.333-5.417.417-6.75-2.75l-17.625-41.5h-83.25l-17.875 41.5c-1.333 3.167-3.667 4.083-7 2.75Zm29.375-54.75h74.25L512 144.25l-37.375 86.5Z"/>
  <path fill="#000" d="m445.25 285.5-.437.899.032.016.034.013.371-.928Zm-2.75-7-.919-.393-.006.013-.005.013.93.367Zm62.75-146.75.919.393.009-.021.008-.021-.936-.351Zm12.75 0 .92-.392-.007-.016-.008-.016-.905.424Zm62.5 146.75-.92.392.003.008.004.008.913-.408Zm-2.75 7 .388.922.016-.007.015-.007-.419-.908Zm-6.75-2.75.922-.388-.002-.003-.92.391Zm-17.625-41.5.92-.391-.258-.609h-.662v1Zm-83.25 0v-1h-.658l-.26.604.918.396Zm-17.875 41.5-.918-.396-.004.008.922.388Zm22.375-52-.918-.397-.603 1.397h1.521v-1Zm74.25 0v1h1.513l-.593-1.392-.92.392ZM512 144.25l.92-.392-.914-2.144-.924 2.139.918.397Zm-66.313 140.351c-1.4-.681-2.169-1.483-2.506-2.342-.337-.857-.317-1.958.249-3.392l-1.86-.734c-.684 1.733-.831 3.382-.251 4.858.579 1.474 1.81 2.589 3.494 3.408l.874-1.798Zm-2.268-5.708 62.75-146.75-1.838-.786-62.75 146.75 1.838.786Zm62.767-146.792c.441-1.174 1.074-1.989 1.869-2.519.799-.533 1.843-.832 3.195-.832v-2c-1.648 0-3.104.367-4.305 1.168-1.205.803-2.072 1.988-2.631 3.481l1.872.702Zm5.064-3.351h.75v-2h-.75v2Zm.75 0c1.207 0 2.195.29 3.008.832.817.545 1.522 1.387 2.087 2.592l1.81-.848c-.685-1.462-1.605-2.62-2.788-3.408-1.187-.791-2.574-1.168-4.117-1.168v2Zm5.08 3.392 62.5 146.75 1.84-.784-62.5-146.75-1.84.784Zm62.507 146.766c.642 1.435.685 2.518.357 3.351-.33.841-1.122 1.645-2.613 2.333l.838 1.816c1.759-.812 3.05-1.925 3.637-3.417.589-1.5.382-3.167-.393-4.899l-1.826.816Zm-2.225 5.67c-1.441.607-2.504.631-3.297.308-.793-.323-1.537-1.083-2.143-2.524l-1.844.776c.727 1.725 1.775 3.007 3.232 3.601 1.457.593 3.103.409 4.828-.317l-.776-1.844Zm-5.442-2.219-17.625-41.5-1.84.782 17.625 41.5 1.84-.782Zm-18.545-42.109h-83.25v2h83.25v-2Zm-84.168.604-17.875 41.5 1.836.792 17.875-41.5-1.836-.792Zm-17.879 41.508c-.602 1.429-1.36 2.192-2.194 2.52-.844.331-1.981.302-3.513-.31l-.742 1.856c1.801.721 3.498.9 4.987.315 1.499-.589 2.574-1.868 3.306-3.605l-1.844-.776Zm23.297-50.612h74.25v-2h-74.25v2Zm75.17-1.392-36.875-86.5-1.84.784 36.875 86.5 1.84-.784Zm-38.713-86.505-37.375 86.5 1.836.794 37.375-86.5-1.836-.794Z"/>
  <path fill="url(#d)" fill-opacity=".2" d="M432.25 285.5c-3.083-1.5-4-3.833-2.75-7l62.75-146.75c1-2.667 3-4 6-4h.75c2.75 0 4.75 1.333 6 4l62.5 146.75c1.417 3.167.5 5.5-2.75 7-3.167 1.333-5.417.417-6.75-2.75l-17.625-41.5h-83.25l-17.875 41.5c-1.333 3.167-3.667 4.083-7 2.75Zm29.375-54.75h74.25L499 144.25l-37.375 86.5Z"/>
  <path fill="#fff" d="m432.25 285.5-.437.899.032.016.034.013.371-.928Zm-2.75-7-.919-.393-.006.013-.005.013.93.367Zm62.75-146.75.919.393.009-.021.008-.021-.936-.351Zm12.75 0 .92-.392-.007-.016-.008-.016-.905.424Zm62.5 146.75-.92.392.003.008.004.008.913-.408Zm-2.75 7 .388.922.016-.007.015-.007-.419-.908Zm-6.75-2.75.922-.388-.002-.003-.92.391Zm-17.625-41.5.92-.391-.258-.609h-.662v1Zm-83.25 0v-1h-.658l-.26.604.918.396Zm-17.875 41.5-.918-.396-.004.008.922.388Zm22.375-52-.918-.397-.603 1.397h1.521v-1Zm74.25 0v1h1.513l-.593-1.392-.92.392ZM499 144.25l.92-.392-.914-2.144-.924 2.139.918.397Zm-66.313 140.351c-1.4-.681-2.169-1.483-2.506-2.342-.337-.857-.317-1.958.249-3.392l-1.86-.734c-.684 1.733-.831 3.382-.251 4.858.579 1.474 1.81 2.589 3.494 3.408l.874-1.798Zm-2.268-5.708 62.75-146.75-1.838-.786-62.75 146.75 1.838.786Zm62.767-146.792c.441-1.174 1.074-1.989 1.869-2.519.799-.533 1.843-.832 3.195-.832v-2c-1.648 0-3.104.367-4.305 1.168-1.205.803-2.072 1.988-2.631 3.481l1.872.702Zm5.064-3.351h.75v-2h-.75v2Zm.75 0c1.207 0 2.195.29 3.008.832.817.545 1.522 1.387 2.087 2.592l1.81-.848c-.685-1.462-1.605-2.62-2.788-3.408-1.187-.791-2.574-1.168-4.117-1.168v2Zm5.08 3.392 62.5 146.75 1.84-.784-62.5-146.75-1.84.784Zm62.507 146.766c.642 1.435.685 2.518.357 3.351-.33.841-1.122 1.645-2.613 2.333l.838 1.816c1.759-.812 3.05-1.925 3.637-3.417.589-1.5.382-3.167-.393-4.899l-1.826.816Zm-2.225 5.67c-1.441.607-2.504.631-3.297.308-.793-.323-1.537-1.083-2.143-2.524l-1.844.776c.727 1.725 1.775 3.007 3.232 3.601 1.457.593 3.103.409 4.828-.317l-.776-1.844Zm-5.442-2.219-17.625-41.5-1.84.782 17.625 41.5 1.84-.782Zm-18.545-42.109h-83.25v2h83.25v-2Zm-84.168.604-17.875 41.5 1.836.792 17.875-41.5-1.836-.792Zm-17.879 41.508c-.602 1.429-1.36 2.192-2.194 2.52-.844.331-1.981.302-3.513-.31l-.742 1.856c1.801.721 3.498.9 4.987.315 1.499-.589 2.574-1.868 3.306-3.605l-1.844-.776Zm23.297-50.612h74.25v-2h-74.25v2Zm75.17-1.392-36.875-86.5-1.84.784 36.875 86.5 1.84-.784Zm-38.713-86.505-37.375 86.5 1.836.794 37.375-86.5-1.836-.794Z"/>
  <path fill="url(#e)" fill-opacity=".2" d="M410.5 286.25c-1.5.833-2.875 1.125-4.125.875-1.167-.25-2.208-1.042-3.125-2.375l-41.75-65.5H312v61.5c0 3.5-1.75 5.25-5.25 5.25s-5.25-1.75-5.25-5.25V133c0-3.5 1.75-5.25 5.25-5.25h58.5c13.917 0 24.375 3.542 31.375 10.625 7.083 7 10.625 17.458 10.625 31.375v7.5c0 12.333-2.833 22-8.5 29-5.583 6.917-13.917 11.083-25 12.5L412 279c2 3.083 1.5 5.5-1.5 7.25Zm-98.5-77.5h53.25c10.917 0 18.875-2.542 23.875-7.625 5.083-5.083 7.625-13.042 7.625-23.875v-7.5c0-10.917-2.542-18.875-7.625-23.875-5-5.083-12.958-7.625-23.875-7.625H312v70.5Z"/>
  <path fill="#FFEFEF" d="m410.5 286.25.486.874.009-.005.009-.005-.504-.864Zm-4.125.875-.21.978.014.003.196-.981Zm-3.125-2.375-.843.537.009.015.01.015.824-.567Zm-41.75-65.5.843-.538-.295-.462h-.548v1Zm-49.5 0v-1h-1v1h1Zm84.625-80.875-.711.703.008.008.703-.711Zm2.125 67.875-.777-.629-.001.001.778.628Zm-25 12.5-.127-.992-1.561.2.844 1.328.844-.536ZM412 279l-.844.536.005.008L412 279Zm-100-70.25h-1v1h1v-1Zm77.125-7.625-.707-.707-.006.006.713.701Zm0-55.25-.713.701.006.006.006.006.701-.713ZM312 138.25v-1h-1v1h1Zm98.014 147.126c-1.364.758-2.495.958-3.443.768l-.392 1.962c1.552.31 3.171-.073 4.807-.982l-.972-1.748Zm-3.429.771c-.839-.18-1.687-.764-2.511-1.964l-1.648 1.134c1.009 1.467 2.245 2.466 3.739 2.786l.42-1.956Zm-2.492-1.935-41.75-65.5-1.686 1.075 41.75 65.5 1.686-1.075ZM361.5 218.25H312v2h49.5v-2Zm-50.5 1v61.5h2v-61.5h-2Zm0 61.5c0 1.596-.398 2.609-1.02 3.23-.621.622-1.634 1.02-3.23 1.02v2c1.904 0 3.516-.477 4.645-1.605 1.128-1.129 1.605-2.741 1.605-4.645h-2Zm-4.25 4.25c-1.596 0-2.609-.398-3.23-1.02-.622-.621-1.02-1.634-1.02-3.23h-2c0 1.904.477 3.516 1.605 4.645 1.129 1.128 2.741 1.605 4.645 1.605v-2Zm-4.25-4.25V133h-2v147.75h2Zm0-147.75c0-1.596.398-2.609 1.02-3.23.621-.622 1.634-1.02 3.23-1.02v-2c-1.904 0-3.516.477-4.645 1.605-1.128 1.129-1.605 2.741-1.605 4.645h2Zm4.25-4.25h58.5v-2h-58.5v2Zm58.5 0c13.757 0 23.916 3.5 30.664 10.328l1.422-1.406c-7.252-7.338-18.01-10.922-32.086-10.922v2Zm30.672 10.336c6.828 6.748 10.328 16.907 10.328 30.664h2c0-14.076-3.584-24.834-10.922-32.086l-1.406 1.422Zm10.328 30.664v7.5h2v-7.5h-2Zm0 7.5c0 12.188-2.8 21.605-8.277 28.371l1.554 1.258c5.856-7.234 8.723-17.151 8.723-29.629h-2Zm-8.278 28.372c-5.382 6.668-13.452 10.743-24.349 12.136l.254 1.984c11.27-1.441 19.867-5.698 25.651-12.864l-1.556-1.256Zm-25.066 13.664 38.25 60.25 1.688-1.072-38.25-60.25-1.688 1.072Zm38.255 60.258c.926 1.428 1.16 2.53.985 3.378-.172.832-.792 1.672-2.15 2.464l1.008 1.728c1.642-.958 2.772-2.202 3.1-3.786.325-1.569-.191-3.217-1.265-4.872l-1.678 1.088ZM312 209.75h53.25v-2H312v2Zm53.25 0c11.045 0 19.32-2.568 24.588-7.924l-1.426-1.402c-4.732 4.811-12.374 7.326-23.162 7.326v2Zm24.582-7.918c5.348-5.347 7.918-13.616 7.918-24.582h-2c0 10.701-2.513 18.349-7.332 23.168l1.414 1.414Zm7.918-24.582v-7.5h-2v7.5h2Zm0-7.5c0-11.045-2.568-19.32-7.924-24.588l-1.402 1.426c4.811 4.732 7.326 12.374 7.326 23.162h2Zm-7.912-24.576c-5.268-5.356-13.543-7.924-24.588-7.924v2c10.788 0 18.43 2.515 23.162 7.326l1.426-1.402Zm-24.588-7.924H312v2h53.25v-2Zm-54.25 1v70.5h2v-70.5h-2Z"/>
  <path fill="url(#f)" fill-opacity=".2" d="M400.5 286.25c-1.5.833-2.875 1.125-4.125.875-1.167-.25-2.208-1.042-3.125-2.375l-41.75-65.5H302v61.5c0 3.5-1.75 5.25-5.25 5.25s-5.25-1.75-5.25-5.25V133c0-3.5 1.75-5.25 5.25-5.25h58.5c13.917 0 24.375 3.542 31.375 10.625 7.083 7 10.625 17.458 10.625 31.375v7.5c0 12.333-2.833 22-8.5 29-5.583 6.917-13.917 11.083-25 12.5L402 279c2 3.083 1.5 5.5-1.5 7.25Zm-98.5-77.5h53.25c10.917 0 18.875-2.542 23.875-7.625 5.083-5.083 7.625-13.042 7.625-23.875v-7.5c0-10.917-2.542-18.875-7.625-23.875-5-5.083-12.958-7.625-23.875-7.625H302v70.5Z"/>
  <path fill="#FFEFEF" d="m400.5 286.25.486.874.009-.005.009-.005-.504-.864Zm-4.125.875-.21.978.014.003.196-.981Zm-3.125-2.375-.843.537.009.015.01.015.824-.567Zm-41.75-65.5.843-.538-.295-.462h-.548v1Zm-49.5 0v-1h-1v1h1Zm84.625-80.875-.711.703.008.008.703-.711Zm2.125 67.875-.777-.629-.001.001.778.628Zm-25 12.5-.127-.992-1.561.2.844 1.328.844-.536ZM402 279l-.844.536.005.008L402 279Zm-100-70.25h-1v1h1v-1Zm77.125-7.625-.707-.707-.006.006.713.701Zm0-55.25-.713.701.006.006.006.006.701-.713ZM302 138.25v-1h-1v1h1Zm98.014 147.126c-1.364.758-2.495.958-3.443.768l-.392 1.962c1.552.31 3.171-.073 4.807-.982l-.972-1.748Zm-3.429.771c-.839-.18-1.687-.764-2.511-1.964l-1.648 1.134c1.009 1.467 2.245 2.466 3.739 2.786l.42-1.956Zm-2.492-1.935-41.75-65.5-1.686 1.075 41.75 65.5 1.686-1.075ZM351.5 218.25H302v2h49.5v-2Zm-50.5 1v61.5h2v-61.5h-2Zm0 61.5c0 1.596-.398 2.609-1.02 3.23-.621.622-1.634 1.02-3.23 1.02v2c1.904 0 3.516-.477 4.645-1.605 1.128-1.129 1.605-2.741 1.605-4.645h-2Zm-4.25 4.25c-1.596 0-2.609-.398-3.23-1.02-.622-.621-1.02-1.634-1.02-3.23h-2c0 1.904.477 3.516 1.605 4.645 1.129 1.128 2.741 1.605 4.645 1.605v-2Zm-4.25-4.25V133h-2v147.75h2Zm0-147.75c0-1.596.398-2.609 1.02-3.23.621-.622 1.634-1.02 3.23-1.02v-2c-1.904 0-3.516.477-4.645 1.605-1.128 1.129-1.605 2.741-1.605 4.645h2Zm4.25-4.25h58.5v-2h-58.5v2Zm58.5 0c13.757 0 23.916 3.5 30.664 10.328l1.422-1.406c-7.252-7.338-18.01-10.922-32.086-10.922v2Zm30.672 10.336c6.828 6.748 10.328 16.907 10.328 30.664h2c0-14.076-3.584-24.834-10.922-32.086l-1.406 1.422Zm10.328 30.664v7.5h2v-7.5h-2Zm0 7.5c0 12.188-2.8 21.605-8.277 28.371l1.554 1.258c5.856-7.234 8.723-17.151 8.723-29.629h-2Zm-8.278 28.372c-5.382 6.668-13.452 10.743-24.349 12.136l.254 1.984c11.27-1.441 19.867-5.698 25.651-12.864l-1.556-1.256Zm-25.066 13.664 38.25 60.25 1.688-1.072-38.25-60.25-1.688 1.072Zm38.255 60.258c.926 1.428 1.16 2.53.985 3.378-.172.832-.792 1.672-2.15 2.464l1.008 1.728c1.642-.958 2.772-2.202 3.1-3.786.325-1.569-.191-3.217-1.265-4.872l-1.678 1.088ZM302 209.75h53.25v-2H302v2Zm53.25 0c11.045 0 19.32-2.568 24.588-7.924l-1.426-1.402c-4.732 4.811-12.374 7.326-23.162 7.326v2Zm24.582-7.918c5.348-5.347 7.918-13.616 7.918-24.582h-2c0 10.701-2.513 18.349-7.332 23.168l1.414 1.414Zm7.918-24.582v-7.5h-2v7.5h2Zm0-7.5c0-11.045-2.568-19.32-7.924-24.588l-1.402 1.426c4.811 4.732 7.326 12.374 7.326 23.162h2Zm-7.912-24.576c-5.268-5.356-13.543-7.924-24.588-7.924v2c10.788 0 18.43 2.515 23.162 7.326l1.426-1.402Zm-24.588-7.924H302v2h53.25v-2Zm-54.25 1v70.5h2v-70.5h-2Z"/>
  <path fill="url(#g)" fill-opacity=".2" d="M410.5 286.25c-1.5.833-2.875 1.125-4.125.875-1.167-.25-2.208-1.042-3.125-2.375l-41.75-65.5H312v61.5c0 3.5-1.75 5.25-5.25 5.25s-5.25-1.75-5.25-5.25V133c0-3.5 1.75-5.25 5.25-5.25h58.5c13.917 0 24.375 3.542 31.375 10.625 7.083 7 10.625 17.458 10.625 31.375v7.5c0 12.333-2.833 22-8.5 29-5.583 6.917-13.917 11.083-25 12.5L412 279c2 3.083 1.5 5.5-1.5 7.25Zm-98.5-77.5h53.25c10.917 0 18.875-2.542 23.875-7.625 5.083-5.083 7.625-13.042 7.625-23.875v-7.5c0-10.917-2.542-18.875-7.625-23.875-5-5.083-12.958-7.625-23.875-7.625H312v70.5Z"/>
  <path fill="#FFEFEF" d="m410.5 286.25.486.874.009-.005.009-.005-.504-.864Zm-4.125.875-.21.978.014.003.196-.981Zm-3.125-2.375-.843.537.009.015.01.015.824-.567Zm-41.75-65.5.843-.538-.295-.462h-.548v1Zm-49.5 0v-1h-1v1h1Zm84.625-80.875-.711.703.008.008.703-.711Zm2.125 67.875-.777-.629-.001.001.778.628Zm-25 12.5-.127-.992-1.561.2.844 1.328.844-.536ZM412 279l-.844.536.005.008L412 279Zm-100-70.25h-1v1h1v-1Zm77.125-7.625-.707-.707-.006.006.713.701Zm0-55.25-.713.701.006.006.006.006.701-.713ZM312 138.25v-1h-1v1h1Zm98.014 147.126c-1.364.758-2.495.958-3.443.768l-.392 1.962c1.552.31 3.171-.073 4.807-.982l-.972-1.748Zm-3.429.771c-.839-.18-1.687-.764-2.511-1.964l-1.648 1.134c1.009 1.467 2.245 2.466 3.739 2.786l.42-1.956Zm-2.492-1.935-41.75-65.5-1.686 1.075 41.75 65.5 1.686-1.075ZM361.5 218.25H312v2h49.5v-2Zm-50.5 1v61.5h2v-61.5h-2Zm0 61.5c0 1.596-.398 2.609-1.02 3.23-.621.622-1.634 1.02-3.23 1.02v2c1.904 0 3.516-.477 4.645-1.605 1.128-1.129 1.605-2.741 1.605-4.645h-2Zm-4.25 4.25c-1.596 0-2.609-.398-3.23-1.02-.622-.621-1.02-1.634-1.02-3.23h-2c0 1.904.477 3.516 1.605 4.645 1.129 1.128 2.741 1.605 4.645 1.605v-2Zm-4.25-4.25V133h-2v147.75h2Zm0-147.75c0-1.596.398-2.609 1.02-3.23.621-.622 1.634-1.02 3.23-1.02v-2c-1.904 0-3.516.477-4.645 1.605-1.128 1.129-1.605 2.741-1.605 4.645h2Zm4.25-4.25h58.5v-2h-58.5v2Zm58.5 0c13.757 0 23.916 3.5 30.664 10.328l1.422-1.406c-7.252-7.338-18.01-10.922-32.086-10.922v2Zm30.672 10.336c6.828 6.748 10.328 16.907 10.328 30.664h2c0-14.076-3.584-24.834-10.922-32.086l-1.406 1.422Zm10.328 30.664v7.5h2v-7.5h-2Zm0 7.5c0 12.188-2.8 21.605-8.277 28.371l1.554 1.258c5.856-7.234 8.723-17.151 8.723-29.629h-2Zm-8.278 28.372c-5.382 6.668-13.452 10.743-24.349 12.136l.254 1.984c11.27-1.441 19.867-5.698 25.651-12.864l-1.556-1.256Zm-25.066 13.664 38.25 60.25 1.688-1.072-38.25-60.25-1.688 1.072Zm38.255 60.258c.926 1.428 1.16 2.53.985 3.378-.172.832-.792 1.672-2.15 2.464l1.008 1.728c1.642-.958 2.772-2.202 3.1-3.786.325-1.569-.191-3.217-1.265-4.872l-1.678 1.088ZM312 209.75h53.25v-2H312v2Zm53.25 0c11.045 0 19.32-2.568 24.588-7.924l-1.426-1.402c-4.732 4.811-12.374 7.326-23.162 7.326v2Zm24.582-7.918c5.348-5.347 7.918-13.616 7.918-24.582h-2c0 10.701-2.513 18.349-7.332 23.168l1.414 1.414Zm7.918-24.582v-7.5h-2v7.5h2Zm0-7.5c0-11.045-2.568-19.32-7.924-24.588l-1.402 1.426c4.811 4.732 7.326 12.374 7.326 23.162h2Zm-7.912-24.576c-5.268-5.356-13.543-7.924-24.588-7.924v2c10.788 0 18.43 2.515 23.162 7.326l1.426-1.402Zm-24.588-7.924H312v2h53.25v-2Zm-54.25 1v70.5h2v-70.5h-2Z"/>
  <path fill="url(#h)" fill-opacity=".2" d="M176.75 286c-3.5 0-5.25-1.75-5.25-5.25V133c0-3.5 1.75-5.25 5.25-5.25h95c3.5 0 5.25 1.75 5.25 5.25s-1.75 5.25-5.25 5.25H182v62.25h60.25c3.5 0 5.25 1.75 5.25 5.25s-1.75 5.25-5.25 5.25H182v64.5h89.75c3.5 0 5.25 1.75 5.25 5.25s-1.75 5.25-5.25 5.25h-95Z"/>
  <path fill="#fff" d="M182 138.25v-1h-1v1h1Zm0 62.25h-1v1h1v-1Zm0 10.5v-1h-1v1h1Zm0 64.5h-1v1h1v-1Zm-5.25 9.5c-1.596 0-2.609-.398-3.23-1.02-.622-.621-1.02-1.634-1.02-3.23h-2c0 1.904.477 3.516 1.605 4.645 1.129 1.128 2.741 1.605 4.645 1.605v-2Zm-4.25-4.25V133h-2v147.75h2Zm0-147.75c0-1.596.398-2.609 1.02-3.23.621-.622 1.634-1.02 3.23-1.02v-2c-1.904 0-3.516.477-4.645 1.605-1.128 1.129-1.605 2.741-1.605 4.645h2Zm4.25-4.25h95v-2h-95v2Zm95 0c1.596 0 2.609.398 3.23 1.02.622.621 1.02 1.634 1.02 3.23h2c0-1.904-.477-3.516-1.605-4.645-1.129-1.128-2.741-1.605-4.645-1.605v2ZM276 133c0 1.596-.398 2.609-1.02 3.23-.621.622-1.634 1.02-3.23 1.02v2c1.904 0 3.516-.477 4.645-1.605 1.128-1.129 1.605-2.741 1.605-4.645h-2Zm-4.25 4.25H182v2h89.75v-2Zm-90.75 1v62.25h2v-62.25h-2Zm1 63.25h60.25v-2H182v2Zm60.25 0c1.596 0 2.609.398 3.23 1.02.622.621 1.02 1.634 1.02 3.23h2c0-1.904-.477-3.516-1.605-4.645-1.129-1.128-2.741-1.605-4.645-1.605v2Zm4.25 4.25c0 1.596-.398 2.609-1.02 3.23-.621.622-1.634 1.02-3.23 1.02v2c1.904 0 3.516-.477 4.645-1.605 1.128-1.129 1.605-2.741 1.605-4.645h-2Zm-4.25 4.25H182v2h60.25v-2ZM181 211v64.5h2V211h-2Zm1 65.5h89.75v-2H182v2Zm89.75 0c1.596 0 2.609.398 3.23 1.02.622.621 1.02 1.634 1.02 3.23h2c0-1.904-.477-3.516-1.605-4.645-1.129-1.128-2.741-1.605-4.645-1.605v2Zm4.25 4.25c0 1.596-.398 2.609-1.02 3.23-.621.622-1.634 1.02-3.23 1.02v2c1.904 0 3.516-.477 4.645-1.605 1.128-1.129 1.605-2.741 1.605-4.645h-2Zm-4.25 4.25h-95v2h95v-2Z"/>
  <path fill="url(#i)" fill-opacity=".2" d="M176.75 286c-3.5 0-5.25-1.75-5.25-5.25V133c0-3.5 1.75-5.25 5.25-5.25h95c3.5 0 5.25 1.75 5.25 5.25s-1.75 5.25-5.25 5.25H182v62.25h60.25c3.5 0 5.25 1.75 5.25 5.25s-1.75 5.25-5.25 5.25H182v64.5h89.75c3.5 0 5.25 1.75 5.25 5.25s-1.75 5.25-5.25 5.25h-95Z"/>
  <path fill="#fff" d="M182 138.25v-1h-1v1h1Zm0 62.25h-1v1h1v-1Zm0 10.5v-1h-1v1h1Zm0 64.5h-1v1h1v-1Zm-5.25 9.5c-1.596 0-2.609-.398-3.23-1.02-.622-.621-1.02-1.634-1.02-3.23h-2c0 1.904.477 3.516 1.605 4.645 1.129 1.128 2.741 1.605 4.645 1.605v-2Zm-4.25-4.25V133h-2v147.75h2Zm0-147.75c0-1.596.398-2.609 1.02-3.23.621-.622 1.634-1.02 3.23-1.02v-2c-1.904 0-3.516.477-4.645 1.605-1.128 1.129-1.605 2.741-1.605 4.645h2Zm4.25-4.25h95v-2h-95v2Zm95 0c1.596 0 2.609.398 3.23 1.02.622.621 1.02 1.634 1.02 3.23h2c0-1.904-.477-3.516-1.605-4.645-1.129-1.128-2.741-1.605-4.645-1.605v2ZM276 133c0 1.596-.398 2.609-1.02 3.23-.621.622-1.634 1.02-3.23 1.02v2c1.904 0 3.516-.477 4.645-1.605 1.128-1.129 1.605-2.741 1.605-4.645h-2Zm-4.25 4.25H182v2h89.75v-2Zm-90.75 1v62.25h2v-62.25h-2Zm1 63.25h60.25v-2H182v2Zm60.25 0c1.596 0 2.609.398 3.23 1.02.622.621 1.02 1.634 1.02 3.23h2c0-1.904-.477-3.516-1.605-4.645-1.129-1.128-2.741-1.605-4.645-1.605v2Zm4.25 4.25c0 1.596-.398 2.609-1.02 3.23-.621.622-1.634 1.02-3.23 1.02v2c1.904 0 3.516-.477 4.645-1.605 1.128-1.129 1.605-2.741 1.605-4.645h-2Zm-4.25 4.25H182v2h60.25v-2ZM181 211v64.5h2V211h-2Zm1 65.5h89.75v-2H182v2Zm89.75 0c1.596 0 2.609.398 3.23 1.02.622.621 1.02 1.634 1.02 3.23h2c0-1.904-.477-3.516-1.605-4.645-1.129-1.128-2.741-1.605-4.645-1.605v2Zm4.25 4.25c0 1.596-.398 2.609-1.02 3.23-.621.622-1.634 1.02-3.23 1.02v2c1.904 0 3.516-.477 4.645-1.605 1.128-1.129 1.605-2.741 1.605-4.645h-2Zm-4.25 4.25h-95v2h95v-2Z"/>
  <path fill="url(#j)" fill-opacity=".2" d="M166.75 286c-3.5 0-5.25-1.75-5.25-5.25V133c0-3.5 1.75-5.25 5.25-5.25h95c3.5 0 5.25 1.75 5.25 5.25s-1.75 5.25-5.25 5.25H172v62.25h60.25c3.5 0 5.25 1.75 5.25 5.25s-1.75 5.25-5.25 5.25H172v64.5h89.75c3.5 0 5.25 1.75 5.25 5.25s-1.75 5.25-5.25 5.25h-95Z"/>
  <path fill="#fff" d="M172 138.25v-1h-1v1h1Zm0 62.25h-1v1h1v-1Zm0 10.5v-1h-1v1h1Zm0 64.5h-1v1h1v-1Zm-5.25 9.5c-1.596 0-2.609-.398-3.23-1.02-.622-.621-1.02-1.634-1.02-3.23h-2c0 1.904.477 3.516 1.605 4.645 1.129 1.128 2.741 1.605 4.645 1.605v-2Zm-4.25-4.25V133h-2v147.75h2Zm0-147.75c0-1.596.398-2.609 1.02-3.23.621-.622 1.634-1.02 3.23-1.02v-2c-1.904 0-3.516.477-4.645 1.605-1.128 1.129-1.605 2.741-1.605 4.645h2Zm4.25-4.25h95v-2h-95v2Zm95 0c1.596 0 2.609.398 3.23 1.02.622.621 1.02 1.634 1.02 3.23h2c0-1.904-.477-3.516-1.605-4.645-1.129-1.128-2.741-1.605-4.645-1.605v2ZM266 133c0 1.596-.398 2.609-1.02 3.23-.621.622-1.634 1.02-3.23 1.02v2c1.904 0 3.516-.477 4.645-1.605 1.128-1.129 1.605-2.741 1.605-4.645h-2Zm-4.25 4.25H172v2h89.75v-2Zm-90.75 1v62.25h2v-62.25h-2Zm1 63.25h60.25v-2H172v2Zm60.25 0c1.596 0 2.609.398 3.23 1.02.622.621 1.02 1.634 1.02 3.23h2c0-1.904-.477-3.516-1.605-4.645-1.129-1.128-2.741-1.605-4.645-1.605v2Zm4.25 4.25c0 1.596-.398 2.609-1.02 3.23-.621.622-1.634 1.02-3.23 1.02v2c1.904 0 3.516-.477 4.645-1.605 1.128-1.129 1.605-2.741 1.605-4.645h-2Zm-4.25 4.25H172v2h60.25v-2ZM171 211v64.5h2V211h-2Zm1 65.5h89.75v-2H172v2Zm89.75 0c1.596 0 2.609.398 3.23 1.02.622.621 1.02 1.634 1.02 3.23h2c0-1.904-.477-3.516-1.605-4.645-1.129-1.128-2.741-1.605-4.645-1.605v2Zm4.25 4.25c0 1.596-.398 2.609-1.02 3.23-.621.622-1.634 1.02-3.23 1.02v2c1.904 0 3.516-.477 4.645-1.605 1.128-1.129 1.605-2.741 1.605-4.645h-2Zm-4.25 4.25h-95v2h95v-2Z"/>
  <path stroke="#5A3875" stroke-width="10" d="m12.039 274 127 1"/>
  <defs>
    <linearGradient id="a" x1="193" x2="-.297" y1="-17.654" y2="290.542" gradientUnits="userSpaceOnUse">
      <stop/>
      <stop offset=".828" stop-color="#CECECE" stop-opacity=".191"/>
      <stop offset="1" stop-color="#fff" stop-opacity="0"/>
    </linearGradient>
    <linearGradient id="b" x1="193" x2="-.297" y1="-7.654" y2="300.542" gradientUnits="userSpaceOnUse">
      <stop stop-color="#6104FA"/>
      <stop offset=".828" stop-color="#E29D9D" stop-opacity=".191"/>
      <stop offset="1" stop-color="#fff" stop-opacity="0"/>
    </linearGradient>
    <linearGradient id="c" x1="630" x2="436.703" y1="27.346" y2="335.542" gradientUnits="userSpaceOnUse">
      <stop/>
      <stop offset=".828" stop-color="#CECECE" stop-opacity=".191"/>
      <stop offset="1" stop-color="#fff" stop-opacity="0"/>
    </linearGradient>
    <linearGradient id="d" x1="617" x2="423.703" y1="27.346" y2="335.542" gradientUnits="userSpaceOnUse">
      <stop stop-color="#6104FA"/>
      <stop offset=".828" stop-color="#CECECE" stop-opacity=".191"/>
      <stop offset="1" stop-color="#fff" stop-opacity="0"/>
    </linearGradient>
    <linearGradient id="e" x1="472" x2="278.703" y1="27.346" y2="335.542" gradientUnits="userSpaceOnUse">
      <stop/>
      <stop offset=".828" stop-color="#CECECE" stop-opacity=".191"/>
      <stop offset=".937" stop-color="#EDEDED" stop-opacity=".07"/>
      <stop offset="1" stop-color="#fff" stop-opacity="0"/>
    </linearGradient>
    <linearGradient id="f" x1="462" x2="268.703" y1="27.346" y2="335.542" gradientUnits="userSpaceOnUse">
      <stop/>
      <stop offset=".828" stop-color="#CECECE" stop-opacity=".191"/>
      <stop offset=".937" stop-color="#EDEDED" stop-opacity=".07"/>
      <stop offset="1" stop-color="#fff" stop-opacity="0"/>
    </linearGradient>
    <linearGradient id="g" x1="472" x2="278.703" y1="27.346" y2="335.542" gradientUnits="userSpaceOnUse">
      <stop/>
      <stop offset=".828" stop-color="#CECECE" stop-opacity=".191"/>
      <stop offset=".937" stop-color="#EDEDED" stop-opacity=".07"/>
      <stop offset="1" stop-color="#fff" stop-opacity="0"/>
    </linearGradient>
    <linearGradient id="h" x1="205" x2="148.555" y1="27.5" y2="340.114" gradientUnits="userSpaceOnUse">
      <stop stop-color="#564B4B"/>
      <stop offset=".828" stop-color="#CECECE" stop-opacity=".191"/>
      <stop offset="1" stop-color="#fff" stop-opacity="0"/>
    </linearGradient>
    <linearGradient id="i" x1="342" x2="148.703" y1="27.346" y2="335.542" gradientUnits="userSpaceOnUse">
      <stop/>
      <stop offset=".828" stop-color="#CECECE" stop-opacity=".191"/>
      <stop offset="1" stop-color="#fff" stop-opacity="0"/>
    </linearGradient>
    <linearGradient id="j" x1="332" x2="138.703" y1="27.346" y2="335.542" gradientUnits="userSpaceOnUse">
      <stop stop-color="#6104FA"/>
      <stop offset=".828" stop-color="#CECECE" stop-opacity=".191"/>
      <stop offset="1" stop-color="#fff" stop-opacity="0"/>
    </linearGradient>
  </defs>
</svg>
